# xmcd
#
# Track frame offsets: 
#        150
#        22022
#        40766
#        77773
#        101730
#        130492
#        145685
#        175797
#        201901
#        219140
#
# Disc length: 3062 seconds
#
# Revision: 0
# Processed by: cddbd v1.5.2PL0 Copyright (c) Steve Scherf et al.
# Submitted via: ExactAudioCopy v0.90b4
#
DISCID=860bf40a
DTITLE=Gilded Palace Of Sin - You Break Our Hearts, We'll Tear Yours O
DTITLE=ut
DYEAR=2010
DGENRE=Country
TTITLE0=For When We Forget
TTITLE1=Rosa Salvaje
TTITLE2=Mean Old Jack
TTITLE3=Rubbing Up
TTITLE4=There Is No Evil, There Is No Good
TTITLE5=Vony and The Plynths
TTITLE6=Bones Of The Saints
TTITLE7=Wedding Rice
TTITLE8=Nautilus
TTITLE9=Home Because You're Here
EXTD=
EXTT0=
EXTT1=
EXTT2=
EXTT3=
EXTT4=
EXTT5=
EXTT6=
EXTT7=
EXTT8=
EXTT9=
PLAYORDER=
